<svg xmlns="http://www.w3.org/2000/svg" viewBox="0 0 512 512" role="img" aria-labelledby="title">
  <title id="title">Fogo</title>
  <path fill="#ff5a1f" d="M385.8 218.3c-28.7-46.9-85.7-80.1-76.2-153.7 1.4-10.9-11.6-17.6-19.6-10-56.4 53.3-91.4 105.4-82.1 178.6 1.3 10.4-10.8 16.8-18.3 9.5-18.1-17.7-28.3-44.1-26.7-72.2.6-10.8-12.7-16.3-20.1-8.4-44.2 47.5-67.3 95.2-67.3 151.7C75.5 418.2 156.2 488 256 488s180.5-69.8 180.5-174.2c0-35.9-18.2-72.9-50.7-95.5Z"/>
  <path fill="#ef0000" d="M385.8 218.3c-28.7-46.9-85.7-80.1-76.2-153.7 1.4-10.9-11.6-17.6-19.6-10-18.9 17.9-35.5 35.6-49 53.9 16.9 47.2 61.6 78.8 86.4 119.4 32.5 22.6 50.7 59.6 50.7 95.5 0 88.6-58 153.4-136.7 170.1 4.8.3 9.7.5 14.6.5 99.8 0 180.5-69.8 180.5-174.2 0-35.9-18.2-72.9-50.7-95.5Z"/>
  <path fill="#ffd45a" d="M314.5 338.3c-22-35.8-65.4-61.2-58.2-117.4 1.1-8.3-8.9-13.4-15-7.6-43.1 40.8-69.9 80.6-62.7 136.5 1 7.9-8.2 12.8-14 7.2-13.8-13.5-21.6-33.7-20.4-55.1.5-8.3-9.7-12.5-15.4-6.4-33.8 36.3-51.4 72.7-51.4 115.9C77.4 491.4 139 544.7 215.2 544.7s137.8-53.3 137.8-133.3c0-27.4-13.9-55.7-38.5-73.1Z" transform="translate(40 -72)"/>
  <path fill="#ffb21c" d="M314.5 338.3c-22-35.8-65.4-61.2-58.2-117.4 1.1-8.3-8.9-13.4-15-7.6-10.7 10.2-20.4 20.3-28.6 30.7 13.3 33.9 46.8 57.8 66.3 89.6 24.6 17.4 38.5 45.7 38.5 73.1 0 66.9-43.4 116.1-102.5 129.3 3.4.2 6.8.3 10.2.3 76.2 0 137.8-53.3 137.8-133.3 0-27.4-13.9-55.7-38.5-73.1Z" transform="translate(40 -72)"/>
</svg>
